<svg
xmlns="http://www.w3.org/2000/svg"
x="0px"
y="0px"
width="100"
height="100"
viewBox="0 0 40 40"
>
<path
  fill="#f5ce85"
  d="M28,31.5c-5.79,0-10.5-2.691-10.5-6V7h21v18.5C38.5,28.809,33.79,31.5,28,31.5z"
></path>
<path
  fill="#967a44"
  d="M38,7.5v18c0,2.981-4.579,5.5-10,5.5c-5.421,0-10-2.519-10-5.5v-18H38 M39,6.5H17 c0,1.51,0,17.49,0,19c0,3.59,4.925,6.5,11,6.5s11-2.91,11-6.5C39,23.99,39,8.01,39,6.5L39,6.5z"
></path>
<path
  fill="#f5ce85"
  d="M28,11.5c-5.691,0-10.5-2.29-10.5-5s4.809-5,10.5-5s10.5,2.29,10.5,5S33.691,11.5,28,11.5z"
></path>
<path
  fill="#967a44"
  d="M28,2c5.893,0,10,2.372,10,4.5c0,2.128-4.107,4.5-10,4.5c-5.893,0-10-2.372-10-4.5 C18,4.372,22.107,2,28,2 M28,1c-6.075,0-11,2.462-11,5.5S21.925,12,28,12s11-2.462,11-5.5S34.075,1,28,1L28,1z"
></path>
<path
  fill="none"
  stroke="#967a44"
  stroke-miterlimit="10"
  d="M38.5,10.25c0,2.899-4.701,5.25-10.5,5.25s-10.5-2.351-10.5-5.25"
></path>
<path
  fill="none"
  stroke="#967a44"
  stroke-miterlimit="10"
  d="M38.5,14.25c0,2.899-4.701,5.25-10.5,5.25s-10.5-2.351-10.5-5.25"
></path>
<path
  fill="none"
  stroke="#967a44"
  stroke-miterlimit="10"
  d="M38.5,18.25c0,2.899-4.701,5.25-10.5,5.25s-10.5-2.351-10.5-5.25"
></path>
<path
  fill="#deb974"
  d="M28.143 3.7150000000000003A6.786 2.714 0 1 0 28.143 9.143A6.786 2.714 0 1 0 28.143 3.7150000000000003Z"
></path>
<path
  fill="none"
  stroke="#967a44"
  stroke-miterlimit="10"
  d="M17.5,21.295c0,3.427,4.701,6.205,10.5,6.205	s10.5-2.778,10.5-6.205"
></path>
<path
  fill="#ffeea3"
  d="M12,38.5c-5.691,0-10.5-2.519-10.5-5.5V22h21v11C22.5,35.981,17.691,38.5,12,38.5z"
></path>
<path
  fill="#ba9b48"
  d="M22,22.5V33c0,2.71-4.579,5-10,5S2,35.71,2,33V22.5H22 M23,21.5H1c0,1.539,0,9.961,0,11.5 c0,3.314,4.925,6,11,6s11-2.686,11-6C23,31.461,23,23.039,23,21.5L23,21.5z"
></path>
<path
  fill="none"
  stroke="#ba9b48"
  stroke-miterlimit="10"
  d="M22.5,25.25c0,2.899-4.701,5.25-10.5,5.25S1.5,28.149,1.5,25.25"
></path>
<path
  fill="none"
  stroke="#ba9b48"
  stroke-miterlimit="10"
  d="M22.5,29.25c0,2.899-4.701,5.25-10.5,5.25S1.5,32.149,1.5,29.25"
></path>
<g>
  <path
    fill="#ffeea3"
    d="M12,26.5c-5.691,0-10.5-2.29-10.5-5s4.809-5,10.5-5s10.5,2.29,10.5,5S17.691,26.5,12,26.5z"
  ></path>
  <path
    fill="#ba9b48"
    d="M12,17c5.893,0,10,2.372,10,4.5S17.893,26,12,26S2,23.628,2,21.5S6.107,17,12,17 M12,16 c-6.075,0-11,2.462-11,5.5S5.925,27,12,27s11-2.462,11-5.5S18.075,16,12,16L12,16z"
  ></path>
</g>
<g>
  <path
    fill="#f2df8a"
    d="M12.143 18.715A6.786 2.714 0 1 0 12.143 24.142999999999997A6.786 2.714 0 1 0 12.143 18.715Z"
  ></path>
</g>
</svg>